<?xml version="1.0" encoding="UTF-8"?>
<svg width="340mm" height="340mm" viewBox="-170 -170 340 340" version="1.1" xmlns="http://www.w3.org/2000/svg"
    xmlns:xlink="http://www.w3.org/1999/xlink">

    <style type="text/css">
        svg {
            stroke-linecap: round;
            stroke-linejoin: round;
            fill: none;
        }

        circle {
            stroke: #d4a574;
            stroke-width: 4;
        }

        .petale {
            stroke: #d4a574;
            fill: #d4a574;
            stroke-width: 8;
        }
    </style>

    <defs>
        <circle id="c0" cx="0" cy="0" r="78" />
        <path id="p0" class="petale"
            d="m 638.73101,592.53164 c -17.93359,-46.71263 -22.28946,-106.17006 -11.37338,-155.2461 2.82234,-12.68854 9.89013,-36.85409 13.19351,-45.11007 l 1.78518,-4.4616 3.14,8.09346 c 3.91555,10.09245 11.14705,34.95406 13.3383,45.85654 7.33232,36.48176 6.30531,82.21289 -2.66711,118.76216 -2.49938,10.18128 -11.83832,38.97983 -13.07354,40.31498 -0.46305,0.50051 -2.41738,-3.19371 -4.34296,-8.20937 z"
            transform="matrix(0.26458333,0,0,0.26458333,-170,-170)" />
    </defs>

    <g>
        <use xlink:href="#c0" />
        <use xlink:href="#c0" transform="rotate(030) translate(78,0)" />
        <use xlink:href="#c0" transform="rotate(090) translate(78,0)" />
        <use xlink:href="#c0" transform="rotate(150) translate(78,0)" />
        <use xlink:href="#c0" transform="rotate(210) translate(78,0)" />
        <use xlink:href="#c0" transform="rotate(270) translate(78,0)" />
        <use xlink:href="#c0" transform="rotate(330) translate(78,0)" />
        <use xlink:href="#p0" transform="rotate(0) translate(0,0)" />
        <use xlink:href="#p0" transform="rotate(60) translate(0,0)" />
        <use xlink:href="#p0" transform="rotate(120) translate(0,0)" />
        <use xlink:href="#p0" transform="rotate(180) translate(0,0)" />
        <use xlink:href="#p0" transform="rotate(240) translate(0,0)" />
        <use xlink:href="#p0" transform="rotate(300) translate(0,0)" />


    </g>
</svg>