<?xml version="1.0" encoding="UTF-8"?>
<!-- 2025-08-21 13:57:19 Generated by QCAD 3.27.8 SVG Exporter -->
<svg width="222.1095mm" height="222.1092mm" viewBox="-111.0545 -111.0542 222.1095 222.1092" version="1.1" xmlns="http://www.w3.org/2000/svg" style="stroke-linecap:round;stroke-linejoin:round;fill:none">
    <g transform="scale(1,-1)">
        <!-- Arc -->
        <path d="M0,-100 A100,100 0 0,1 0,0" style="stroke:#d6b58d;stroke-width:6;"/>
        <!-- Arc -->
        <path d="M86.6025,-50 A100,100 0 0,1 0,0" style="stroke:#d6b58d;stroke-width:6;"/>
        <!-- Arc -->
        <path d="M86.6025,50 A100,100 0 0,1 0,0" style="stroke:#d6b58d;stroke-width:6;"/>
        <!-- Arc -->
        <path d="M0,100 A100,100 0 0,1 0,0" style="stroke:#d6b58d;stroke-width:6;"/>
        <!-- Arc -->
        <path d="M-86.6025,50 A100,100 0 0,1 0,0" style="stroke:#d6b58d;stroke-width:6;"/>
        <!-- Arc -->
        <path d="M-86.6025,-50 A100,100 0 0,1 0,0" style="stroke:#d6b58d;stroke-width:6;"/>
        <!-- Arc -->
        <path d="M0,0 A100,100 0 0,1 0,-100" style="stroke:#d6b58d;stroke-width:6;"/>
        <!-- Arc -->
        <path d="M0,0 A100,100 0 0,1 86.6025,-50" style="stroke:#d6b58d;stroke-width:6;"/>
        <!-- Arc -->
        <path d="M0,0 A100,100 0 0,1 86.6025,50" style="stroke:#d6b58d;stroke-width:6;"/>
        <!-- Arc -->
        <path d="M0,0 A100,100 0 0,1 0,100" style="stroke:#d6b58d;stroke-width:6;"/>
        <!-- Arc -->
        <path d="M0,0 A100,100 0 0,1 -86.6025,50" style="stroke:#d6b58d;stroke-width:6;"/>
        <!-- Arc -->
        <path d="M0,0 A100,100 0 0,1 -86.6025,-50" style="stroke:#d6b58d;stroke-width:6;"/>
        <!-- Hachure -->
        <path d="M110,0 A110,110 0 0 1 -110,0 A110,110 0 0 1 110,0M100,0 A100,100 0 0 1 -100,0 A100,100 0 0 1 100,0" style="fill:#d6b58d;fill-rule:evenodd;"/>
    </g>
</svg>
