<svg fill="none" stroke="#d4a574" stroke-width="1.5" viewBox="-250 -250 500 500" xmlns="http://www.w3.org/2000/svg" xmlns:xlink="http://www.w3.org/1999/xlink"><pattern id="a" height="78" patternUnits="userSpaceOnUse" width="135.1"><circle fill="none" r="78" stroke="#d4a574" stroke-width="1.5"/><circle cx="135.1" fill="none" r="78" stroke="#d4a574" stroke-width="1.5"/><circle cy="78" fill="none" r="78" stroke="#d4a574" stroke-width="1.5"/><circle cx="135.1" cy="78" fill="none" r="78" stroke="#d4a574" stroke-width="1.5"/><path d="m0 0a78 78 0 0 1 0 78 78 78 0 0 1 135.1 0 78 78 0 0 1 0-78 78 78 0 0 1 -135.1 0" fill="none" stroke="#d4a574" stroke-width="1.5"/></pattern><circle r="245.3"/><circle r="234"/><path d="m0-234a78 78 0 0 1 67.55 39 78 78 0 0 1 67.55 39 78 78 0 0 1 67.55 117 78 78 0 0 1 0 78 78 78 0 0 1 -67.55 117 78 78 0 0 1 -67.55 39 78 78 0 0 1 -135.1 0 78 78 0 0 1 -67.55-39 78 78 0 0 1 -67.55-117 78 78 0 0 1 0-78 78 78 0 0 1 67.55-117 78 78 0 0 1 67.55-39 78 78 0 0 1 67.55-39z" fill="url(#a)"/></svg>