<?xml version="1.0" encoding="utf-8"?>
<!-- Generator: Adobe Illustrator 24.1.0, SVG Export Plug-In . SVG Version: 6.00 Build 0)  -->
<svg version="1.1" id="Layer_1" xmlns="http://www.w3.org/2000/svg" xmlns:xlink="http://www.w3.org/1999/xlink" x="0px" y="0px"
	 viewBox="0 0 190 95.2" style="enable-background:new 0 0 190 95.2;" xml:space="preserve">
<style type="text/css">
	.st0{fill:#2BB7C4;}
</style>
<g id="Calque_2">
	<g id="Calque_1-2">
		<g>
			<path class="st0" d="M31.1,33.9v-2.6h-8.7c-5.6,0-8.4,1.9-8.4,5.6c-0.1,1.7,0.7,3.4,2,4.4c1.7,1.1,3.7,1.7,5.7,1.5
				c2.4,0,4.7-0.8,6.5-2.4C30.1,38.8,31.2,36.4,31.1,33.9 M45.1,54.3H32v-6.5c-3.6,4.8-8,7.2-13.3,7.2c-4.9,0.1-9.7-1.6-13.3-4.9
				C1.8,46.9,0,42.5,0,37.1s1.9-9.5,5.6-12.3c3.7-2.7,8.8-4.1,15.2-4.1h10.4v-0.3c0-5.7-2.8-8.5-8.4-8.5c-2.6,0-5.2,0.6-7.6,1.5
				c-2.5,0.9-4.8,2.2-6.8,3.8L2,7.6c6.4-5,14.3-7.7,22.5-7.6c6.1,0,11,1.6,14.8,4.9s5.7,8.4,5.8,15.4V54.3z"/>
			<path class="st0" d="M91.2,37.7c0.2,4.8-1.8,9.5-5.4,12.7c-3.6,3.2-8.2,4.8-13.7,4.8c-4,0-7.9-0.8-11.6-2.1
				c-4-1.4-7.7-3.5-10.9-6.3l6.1-9.3c5.2,4.3,10.7,6.4,16.6,6.5c1.5,0.1,3-0.3,4.3-1.1c1-0.7,1.6-1.8,1.6-3
				c-0.1-1.4-0.9-2.7-2.2-3.5c-1.9-1.3-4.1-2.3-6.3-3c-2.7-0.9-4.8-1.7-6.3-2.4c-1.7-0.8-3.4-1.8-5-2.9c-3.8-2.5-5.7-6.2-5.7-11.2
				c-0.1-4.7,1.9-9.1,5.6-12.1C61.9,1.6,66.7,0,72.6,0c5.9,0,11.7,2.1,17.6,6.3L85,16.3c-4.3-3.2-8.6-4.8-12.9-4.8s-6.4,1.3-6.4,3.8
				c0,1.4,0.8,2.6,2,3.3c2.2,1.1,4.4,2.1,6.8,2.8c3.2,1.1,5.4,1.9,6.7,2.4c1.7,0.7,3.3,1.6,4.9,2.6C89.5,28.6,91.2,32.4,91.2,37.7"
				/>
			<path class="st0" d="M121.6,41.9c4.6,0,8.8-2.5,12.5-7.4l8.2,9.9c-6.4,7.2-13.4,10.7-20.9,10.7c-7.1,0.2-14-2.6-19-7.6
				c-5.2-5.1-7.7-11.7-7.7-19.9c0-8.2,2.6-14.8,7.9-19.9c4.9-5,11.6-7.8,18.6-7.7c3.8,0,7.5,0.8,10.9,2.4c3.7,1.6,7,4,9.7,7.1
				l-7.2,10.1c-1.6-2-3.6-3.7-5.9-4.8c-2.1-1.1-4.5-1.7-6.9-1.7c-3.5-0.1-6.9,1.3-9.4,3.8c-2.6,2.5-3.9,6.1-3.9,10.6
				s1.3,8.1,3.9,10.6C114.8,40.5,118.1,41.9,121.6,41.9"/>
			<path class="st0" d="M175.8,33.9v-2.6h-8.7c-5.6,0-8.4,1.9-8.4,5.6c-0.1,1.7,0.7,3.4,2,4.4c1.7,1.1,3.7,1.7,5.7,1.5
				c2.4,0,4.7-0.8,6.6-2.4C174.9,38.8,175.9,36.4,175.8,33.9 M189.8,54.3h-13.1v-6.5c-3.6,4.8-8,7.2-13.3,7.2
				c-4.9,0.1-9.7-1.6-13.3-4.9c-3.6-3.3-5.4-7.6-5.4-13.1s1.9-9.5,5.6-12.2c3.7-2.7,8.8-4.1,15.2-4.1h10.4v-0.3
				c0-5.7-2.8-8.5-8.4-8.5c-2.6,0-5.2,0.6-7.6,1.5c-2.5,0.9-4.8,2.2-6.8,3.8l-6.2-9.6c6.4-5,14.3-7.7,22.4-7.6
				c6.1,0,11,1.6,14.8,4.9c3.8,3.2,5.8,8.4,5.8,15.4L189.8,54.3z"/>
			<polygon class="st0" points="12,65.8 12,75.5 11.1,75.5 11.1,67.7 7.5,74.2 7.1,74.2 3.5,67.8 3.5,75.5 2.6,75.5 2.6,65.8 
				3.4,65.8 7.3,73 11.2,65.8 			"/>
			<path class="st0" d="M18.3,65.3h1.2l-2.1,1.7h-0.9L18.3,65.3z M15.8,69.7c-0.5,0.5-0.7,1.1-0.8,1.8h4.8c0-0.7-0.3-1.3-0.8-1.8
				C18.6,69.2,18,69,17.4,69C16.8,69,16.2,69.2,15.8,69.7 M20.7,72.2H15c0,0.7,0.3,1.3,0.8,1.8c0.5,0.5,1.2,0.7,1.9,0.7
				c0.4,0,0.8-0.1,1.2-0.2c0.4-0.2,0.7-0.4,0.9-0.7l0.5,0.6c-0.3,0.4-0.7,0.7-1.1,0.9c-0.5,0.2-1,0.3-1.5,0.3
				c-0.7,0-1.3-0.2-1.9-0.5c-0.5-0.3-1-0.8-1.3-1.3c-0.3-0.6-0.5-1.3-0.4-1.9c0-0.7,0.1-1.3,0.4-1.9c0.3-0.5,0.7-1,1.2-1.3
				c1-0.6,2.4-0.6,3.4,0c0.5,0.3,0.9,0.8,1.2,1.3c0.3,0.6,0.4,1.3,0.4,1.9L20.7,72.2z"/>
			<path class="st0" d="M26.7,74.3c0.4-0.2,0.7-0.6,0.9-1c0.5-0.9,0.5-2.1,0-3c-0.2-0.4-0.5-0.8-0.9-1c-0.4-0.2-0.8-0.3-1.3-0.3
				c-0.5,0-0.9,0.1-1.3,0.3c-0.4,0.2-0.7,0.6-0.9,1c-0.5,0.9-0.5,2.1,0,3c0.2,0.4,0.5,0.8,0.9,1c0.4,0.2,0.8,0.4,1.3,0.3
				C25.8,74.7,26.3,74.6,26.7,74.3 M28.8,65.2v10.3h-0.9v-1.4c-0.3,0.5-0.6,0.9-1.1,1.1c-0.5,0.3-1,0.4-1.5,0.4
				c-1.2,0-2.4-0.7-3-1.8c-0.6-1.2-0.6-2.6,0-3.9c0.3-0.5,0.7-1,1.2-1.3c0.5-0.3,1.1-0.5,1.7-0.5c0.5,0,1,0.1,1.5,0.4
				c0.5,0.3,0.8,0.6,1.1,1.1v-4.4L28.8,65.2z"/>
			<path class="st0" d="M32.4,69.7c-0.5,0.5-0.7,1.1-0.8,1.8h4.8c0-0.7-0.3-1.3-0.8-1.8C34.8,68.8,33.3,68.8,32.4,69.7 M37.4,72.2
				h-5.7c0,0.7,0.3,1.4,0.8,1.8c0.5,0.5,1.2,0.7,1.9,0.7c0.4,0,0.8-0.1,1.2-0.2c0.4-0.2,0.7-0.4,0.9-0.7l0.5,0.6
				c-0.3,0.4-0.7,0.7-1.1,0.9c-0.5,0.2-1,0.3-1.5,0.3c-0.7,0-1.3-0.2-1.9-0.5c-0.5-0.3-1-0.8-1.3-1.3c-0.6-1.2-0.6-2.6,0-3.8
				c0.3-0.5,0.7-1,1.2-1.3c0.5-0.3,1.1-0.5,1.7-0.5c0.6,0,1.2,0.2,1.7,0.5c0.5,0.3,0.9,0.8,1.2,1.3c0.3,0.6,0.4,1.3,0.4,1.9
				L37.4,72.2z"/>
			<path class="st0" d="M40.2,75.1c-0.5-0.3-0.9-0.8-1.2-1.3c-0.3-0.6-0.5-1.3-0.5-1.9c0-0.7,0.1-1.3,0.5-1.9c0.3-0.5,0.7-1,1.2-1.3
				c0.5-0.3,1.1-0.5,1.8-0.5c0.5,0,1.1,0.1,1.6,0.4c0.5,0.2,0.8,0.6,1.1,1.1L44,70.1c-0.2-0.3-0.5-0.6-0.9-0.8
				C42.8,69.1,42.4,69,42,69c-0.5,0-0.9,0.1-1.3,0.3c-0.4,0.2-0.7,0.6-0.9,1c-0.4,0.9-0.4,2.1,0,3c0.2,0.4,0.5,0.8,0.9,1
				c0.4,0.2,0.9,0.4,1.3,0.3c0.4,0,0.8-0.1,1.1-0.3c0.4-0.2,0.7-0.5,0.9-0.8l0.7,0.5c-0.3,0.5-0.6,0.8-1.1,1.1
				c-0.5,0.2-1,0.4-1.6,0.4C41.4,75.6,40.7,75.4,40.2,75.1"/>
			<path class="st0" d="M46.5,68.2h0.9v7.3h-0.9V68.2z M46.5,66.4c-0.1-0.1-0.2-0.3-0.2-0.5c0-0.2,0.1-0.4,0.2-0.5
				c0.1-0.1,0.3-0.2,0.5-0.2c0.4,0,0.7,0.3,0.7,0.7l0,0c0,0.2-0.1,0.4-0.2,0.5C47.3,66.7,46.8,66.7,46.5,66.4
				C46.5,66.4,46.5,66.4,46.5,66.4"/>
			<path class="st0" d="M55.5,68.9c0.5,0.6,0.8,1.5,0.8,2.3v4.2h-0.9v-4.1c0-0.6-0.1-1.2-0.5-1.7c-0.4-0.4-0.9-0.6-1.5-0.6
				c-0.7,0-1.3,0.2-1.7,0.7c-0.5,0.5-0.7,1.2-0.7,1.9v3.8H50v-7.3h0.9v1.3c0.2-0.4,0.6-0.8,1-1c0.5-0.3,1-0.4,1.5-0.4
				C54.2,68.1,54.9,68.4,55.5,68.9"/>
			<path class="st0" d="M59.8,69.7c-0.5,0.5-0.7,1.1-0.8,1.8h4.8c0-0.7-0.3-1.3-0.8-1.8C62.2,68.8,60.7,68.8,59.8,69.7 M64.7,72.2
				H59c0,0.7,0.3,1.4,0.8,1.8c0.5,0.5,1.2,0.7,1.9,0.7c0.4,0,0.8-0.1,1.2-0.2c0.4-0.2,0.7-0.4,0.9-0.7l0.5,0.6
				c-0.3,0.4-0.7,0.7-1.1,0.9c-0.5,0.2-1,0.3-1.5,0.3c-0.7,0-1.3-0.2-1.9-0.5c-0.5-0.3-1-0.8-1.3-1.3c-0.3-0.6-0.5-1.3-0.5-1.9
				c0-0.7,0.1-1.3,0.4-1.9c0.3-0.5,0.7-1,1.2-1.3c1-0.6,2.4-0.6,3.4,0c0.5,0.3,0.9,0.8,1.2,1.3c0.3,0.6,0.4,1.3,0.4,1.9L64.7,72.2z"
				/>
			<path class="st0" d="M66.8,75.3c-0.4-0.1-0.8-0.4-1.2-0.6l0.4-0.8c0.3,0.3,0.7,0.5,1.1,0.6c0.4,0.2,0.9,0.2,1.3,0.2
				c0.5,0,1-0.1,1.4-0.3c0.3-0.2,0.5-0.5,0.4-0.9c0-0.2-0.1-0.5-0.2-0.6c-0.2-0.2-0.4-0.3-0.6-0.3c-0.3-0.1-0.7-0.2-1-0.2
				c-0.5-0.1-0.9-0.2-1.3-0.3c-0.3-0.1-0.6-0.3-0.9-0.6c-0.3-0.3-0.4-0.7-0.4-1.2c0-0.6,0.3-1.1,0.7-1.5c0.6-0.4,1.3-0.6,2-0.6
				c0.4,0,0.9,0.1,1.3,0.2c0.4,0.1,0.8,0.3,1.1,0.5l-0.4,0.8c-0.6-0.4-1.3-0.6-2-0.6c-0.5,0-0.9,0.1-1.3,0.3
				c-0.3,0.2-0.5,0.5-0.4,0.9c0,0.2,0.1,0.5,0.3,0.7c0.2,0.2,0.4,0.3,0.6,0.4c0.3,0.1,0.6,0.2,1,0.2c0.4,0.1,0.9,0.2,1.3,0.3
				c0.3,0.1,0.6,0.3,0.8,0.6c0.3,0.3,0.4,0.7,0.3,1.1c0,0.6-0.2,1.2-0.7,1.5c-0.6,0.4-1.3,0.6-2.1,0.6
				C67.9,75.6,67.3,75.5,66.8,75.3"/>
			<path class="st0" d="M77.3,75.1c-0.5-0.3-1-0.8-1.2-1.3c-0.3-0.6-0.5-1.3-0.4-1.9c0-0.7,0.1-1.3,0.4-1.9c0.3-0.5,0.7-1,1.2-1.3
				c0.6-0.3,1.2-0.5,1.8-0.5c0.5,0,1.1,0.1,1.6,0.4c0.5,0.2,0.8,0.6,1.1,1.1l-0.7,0.5c-0.2-0.3-0.5-0.6-0.8-0.8
				c-0.3-0.2-0.7-0.3-1.1-0.3c-0.5,0-0.9,0.1-1.3,0.3c-0.4,0.2-0.7,0.6-0.9,1c-0.4,0.9-0.4,2.1,0,3c0.2,0.4,0.5,0.8,0.9,1
				c0.4,0.2,0.9,0.4,1.3,0.3c0.4,0,0.8-0.1,1.1-0.3c0.4-0.2,0.6-0.5,0.8-0.8l0.7,0.5c-0.3,0.5-0.6,0.8-1.1,1.1
				c-0.5,0.2-1,0.4-1.6,0.4C78.5,75.6,77.9,75.4,77.3,75.1"/>
			<path class="st0" d="M87.7,74.3c0.4-0.2,0.7-0.6,0.9-1c0.4-1,0.4-2,0-3c-0.2-0.4-0.5-0.8-0.9-1c-0.4-0.2-0.8-0.3-1.3-0.3
				c-0.5,0-0.9,0.1-1.3,0.3c-0.4,0.2-0.7,0.6-0.9,1c-0.5,0.9-0.5,2.1,0,3c0.4,0.8,1.3,1.4,2.2,1.4C86.9,74.7,87.3,74.6,87.7,74.3
				 M84.6,75.1c-0.5-0.3-1-0.8-1.2-1.3c-0.3-0.6-0.5-1.3-0.5-1.9c0-0.7,0.2-1.3,0.5-1.9c0.3-0.5,0.7-1,1.2-1.3
				c0.5-0.3,1.2-0.5,1.8-0.5c0.6,0,1.2,0.2,1.8,0.5c0.5,0.3,1,0.8,1.2,1.3c0.3,0.6,0.5,1.2,0.4,1.9c0,0.7-0.1,1.3-0.4,1.9
				C88.5,75.5,86.4,76.1,84.6,75.1C84.7,75.1,84.7,75.1,84.6,75.1"/>
			<path class="st0" d="M102.2,68.9c0.5,0.7,0.8,1.5,0.7,2.3v4.2h-0.9v-4.1c0-0.6-0.1-1.2-0.5-1.7c-0.4-0.4-0.9-0.6-1.4-0.6
				c-0.6,0-1.2,0.2-1.7,0.7c-0.4,0.5-0.7,1.2-0.6,1.9v3.8h-0.9v-4.1c0-0.6-0.1-1.2-0.5-1.7C96,69.2,95.5,69,94.9,69
				c-0.6,0-1.2,0.2-1.7,0.7c-0.4,0.5-0.7,1.2-0.6,1.9v3.8h-0.9v-7.3h0.9v1.3c0.2-0.4,0.6-0.8,1-1c0.5-0.2,1-0.4,1.5-0.4
				c0.5,0,1,0.1,1.5,0.4c0.4,0.3,0.8,0.7,0.9,1.2c0.2-0.5,0.6-0.9,1.1-1.1c0.5-0.3,1-0.4,1.6-0.4C101,68.1,101.7,68.4,102.2,68.9"/>
			<path class="st0" d="M110.2,74.3c0.4-0.2,0.7-0.6,0.9-1c0.4-1,0.4-2,0-3c-0.2-0.4-0.5-0.8-0.9-1c-0.8-0.5-1.8-0.5-2.6,0
				c-0.4,0.2-0.7,0.6-0.9,1c-0.5,0.9-0.5,2.1,0,3c0.2,0.4,0.5,0.8,0.9,1C108.4,74.8,109.4,74.8,110.2,74.3 M110.7,68.6
				c0.5,0.3,1,0.8,1.3,1.3c0.6,1.2,0.6,2.6,0,3.9c-0.3,0.5-0.7,1-1.2,1.3c-0.5,0.3-1.1,0.5-1.7,0.5c-0.5,0-1-0.1-1.5-0.4
				c-0.5-0.3-0.8-0.6-1.1-1.1v4.1h-0.9v-10h0.9v1.4c0.3-0.5,0.6-0.8,1.1-1.1c0.5-0.3,1-0.4,1.5-0.4
				C109.7,68.1,110.3,68.3,110.7,68.6"/>
			<rect x="114.3" y="65.2" class="st0" width="0.9" height="10.3"/>
			<path class="st0" d="M121.3,65.3h1.2l-2.1,1.7h-0.9L121.3,65.3z M118.8,69.7c-0.5,0.5-0.7,1.1-0.8,1.8h4.8c0-0.7-0.3-1.3-0.8-1.8
				C121.1,68.8,119.7,68.8,118.8,69.7 M123.8,72.1H118c0,0.7,0.3,1.3,0.8,1.8c0.5,0.5,1.2,0.7,1.9,0.7c0.4,0,0.8-0.1,1.2-0.2
				c0.4-0.2,0.7-0.4,0.9-0.7l0.5,0.6c-0.3,0.4-0.7,0.7-1.1,0.9c-0.5,0.2-1,0.3-1.5,0.3c-0.7,0-1.3-0.2-1.9-0.5
				c-0.5-0.3-1-0.8-1.3-1.3c-0.6-1.2-0.6-2.6,0-3.8c0.3-0.5,0.7-1,1.2-1.3c0.5-0.3,1.1-0.5,1.7-0.5c0.6,0,1.2,0.2,1.7,0.5
				c0.5,0.3,0.9,0.8,1.2,1.3c0.3,0.6,0.4,1.3,0.4,1.9L123.8,72.1z"/>
			<path class="st0" d="M136.1,68.9c0.5,0.7,0.8,1.5,0.7,2.3v4.2h-0.9v-4.1c0-0.6-0.1-1.2-0.5-1.7c-0.4-0.4-0.9-0.6-1.4-0.6
				c-0.6,0-1.2,0.2-1.7,0.7c-0.4,0.5-0.7,1.2-0.6,1.9v3.8h-0.9v-4.1c0-0.6-0.1-1.2-0.5-1.7c-0.4-0.4-0.9-0.6-1.5-0.6
				c-0.6,0-1.2,0.2-1.7,0.7c-0.4,0.5-0.7,1.2-0.6,1.9v3.8h-0.9v-7.3h0.9v1.3c0.2-0.4,0.6-0.8,1-1c0.5-0.2,1-0.4,1.5-0.4
				c0.5,0,1,0.1,1.5,0.4c0.4,0.3,0.8,0.7,0.9,1.2c0.2-0.5,0.6-0.9,1.1-1.1c0.5-0.3,1-0.4,1.6-0.4C134.9,68.1,135.6,68.4,136.1,68.9"
				/>
			<path class="st0" d="M140.3,69.7c-0.5,0.5-0.7,1.1-0.8,1.8h4.8c0-0.7-0.3-1.3-0.8-1.8C142.7,68.8,141.3,68.8,140.3,69.7
				 M145.3,72.2h-5.7c0,0.7,0.3,1.3,0.8,1.8c0.5,0.5,1.2,0.7,1.9,0.7c0.4,0,0.8-0.1,1.2-0.2c0.4-0.2,0.7-0.4,0.9-0.7l0.5,0.6
				c-0.3,0.4-0.7,0.7-1.1,0.9c-1.1,0.5-2.3,0.4-3.4-0.2c-0.5-0.3-1-0.8-1.3-1.3c-0.3-0.6-0.5-1.3-0.5-1.9c0-0.7,0.1-1.3,0.4-1.9
				c0.8-1.6,2.7-2.3,4.3-1.5c0.6,0.3,1.2,0.8,1.5,1.5c0.3,0.6,0.4,1.3,0.4,1.9L145.3,72.2z"/>
			<path class="st0" d="M152.7,68.9c0.5,0.6,0.8,1.5,0.8,2.3v4.2h-0.9v-4.1c0-0.6-0.1-1.2-0.5-1.7c-0.4-0.4-1-0.6-1.5-0.6
				c-0.7,0-1.3,0.2-1.7,0.7c-0.5,0.5-0.7,1.2-0.6,1.9v3.8h-0.9v-7.3h0.9v1.3c0.2-0.4,0.6-0.8,1-1c0.5-0.3,1-0.4,1.6-0.4
				C151.4,68.1,152.1,68.4,152.7,68.9"/>
			<path class="st0" d="M159.5,75c-0.2,0.2-0.4,0.3-0.6,0.4c-0.3,0.1-0.5,0.1-0.8,0.1c-0.6,0-1.1-0.2-1.5-0.6
				c-0.4-0.4-0.5-1-0.5-1.6V69h-1.2v-0.8h1.2v-1.6h0.9v1.6h2.1V69H157v4.3c0,0.4,0.1,0.7,0.3,1c0.2,0.2,0.5,0.4,0.9,0.3
				c0.2,0,0.4,0,0.6-0.1c0.2-0.1,0.3-0.1,0.5-0.3L159.5,75z"/>
			<path class="st0" d="M164.6,74.4c0.4-0.3,0.7-0.7,0.8-1.1v-1.2h-2.1c-1.2,0-1.8,0.4-1.8,1.3c0,0.4,0.2,0.8,0.4,1
				c0.4,0.3,0.8,0.4,1.3,0.4C163.7,74.8,164.2,74.7,164.6,74.4 M165.6,68.8c0.5,0.6,0.8,1.3,0.7,2.1v4.5h-0.9v-1.1
				c-0.2,0.4-0.5,0.7-0.9,0.9c-0.4,0.2-0.9,0.3-1.4,0.3c-0.7,0-1.3-0.2-1.8-0.6c-0.8-0.8-0.9-2.1-0.1-2.9c0,0,0,0,0.1-0.1
				c0.6-0.4,1.3-0.6,2-0.6h2.2V71c0-0.5-0.1-1-0.5-1.4c-0.4-0.4-0.9-0.5-1.4-0.5c-0.4,0-0.9,0.1-1.2,0.2c-0.4,0.1-0.7,0.4-1,0.6
				l-0.4-0.7c0.4-0.3,0.8-0.6,1.2-0.7c0.5-0.2,1-0.3,1.5-0.3C164.3,68.1,165.1,68.4,165.6,68.8"/>
			<path class="st0" d="M168.9,68.2h0.9v7.3h-0.9V68.2z M168.9,66.4c-0.1-0.1-0.2-0.3-0.2-0.5c0-0.2,0.1-0.4,0.2-0.5
				c0.1-0.1,0.3-0.2,0.5-0.2c0.4,0,0.7,0.3,0.7,0.7c0,0.2-0.1,0.4-0.2,0.5c-0.1,0.1-0.3,0.2-0.5,0.2C169.1,66.6,169,66.5,168.9,66.4
				"/>
			<path class="st0" d="M174.2,68.5c0.5-0.3,1-0.4,1.6-0.4v1h-0.2c-0.6,0-1.3,0.2-1.7,0.7c-0.4,0.6-0.6,1.3-0.6,2v3.7h-0.9v-7.3h0.9
				v1.4C173.4,69.2,173.8,68.8,174.2,68.5"/>
			<path class="st0" d="M178.5,69.7c-0.5,0.5-0.7,1.1-0.8,1.8h4.8c0-0.7-0.3-1.3-0.8-1.8C180.9,68.8,179.4,68.8,178.5,69.7
				 M183.5,72.2h-5.7c0,0.7,0.3,1.3,0.8,1.8c0.5,0.5,1.2,0.7,1.9,0.7c0.4,0,0.8-0.1,1.2-0.2c0.4-0.2,0.7-0.4,0.9-0.7l0.5,0.6
				c-0.3,0.4-0.7,0.7-1.1,0.9c-0.5,0.2-1,0.3-1.5,0.3c-0.7,0-1.3-0.2-1.9-0.5c-0.5-0.3-1-0.8-1.3-1.3c-0.6-1.2-0.6-2.6,0-3.8
				c0.3-0.5,0.7-1,1.2-1.3c0.5-0.3,1.1-0.5,1.7-0.5c0.6,0,1.2,0.2,1.7,0.5c0.5,0.3,0.9,0.8,1.2,1.3c0.3,0.6,0.4,1.3,0.4,1.9
				L183.5,72.2z"/>
			<path class="st0" d="M185.6,75.3c-0.4-0.1-0.8-0.4-1.2-0.6l0.4-0.8c0.3,0.3,0.7,0.5,1.1,0.6c0.4,0.2,0.9,0.2,1.4,0.2
				c0.5,0,1-0.1,1.4-0.3c0.3-0.2,0.5-0.5,0.4-0.9c0-0.2-0.1-0.5-0.2-0.6c-0.2-0.2-0.4-0.3-0.6-0.3c-0.3-0.1-0.7-0.2-1-0.2
				c-0.5-0.1-0.9-0.2-1.3-0.3c-0.3-0.1-0.6-0.3-0.9-0.6c-0.3-0.3-0.4-0.7-0.4-1.2c0-0.6,0.3-1.1,0.7-1.5c0.6-0.4,1.3-0.6,2-0.6
				c0.4,0,0.9,0.1,1.3,0.2c0.4,0.1,0.8,0.3,1.1,0.5l-0.4,0.8c-0.6-0.4-1.3-0.6-2-0.6c-0.5,0-0.9,0.1-1.3,0.3
				c-0.3,0.2-0.5,0.5-0.4,0.9c0,0.2,0.1,0.5,0.2,0.7c0.2,0.2,0.4,0.3,0.6,0.4c0.2,0.1,0.6,0.2,1,0.2c0.4,0.1,0.9,0.2,1.3,0.3
				c0.3,0.1,0.6,0.3,0.8,0.6c0.2,0.3,0.4,0.7,0.4,1.1c0,0.6-0.3,1.2-0.8,1.5c-0.6,0.4-1.3,0.6-2.1,0.6
				C186.6,75.6,186.1,75.5,185.6,75.3"/>
			<polygon class="st0" points="5.4,87.9 3.5,90 3.5,92.5 2.6,92.5 2.6,82.8 3.5,82.8 3.5,88.7 8.9,82.8 10,82.8 6,87.2 10.2,92.5 
				9.1,92.5 			"/>
			<path class="st0" d="M15.7,91.4c0.4-0.2,0.7-0.6,0.9-1c0.2-0.5,0.3-1,0.3-1.5c0-0.5-0.1-1-0.3-1.5c-0.2-0.4-0.5-0.8-0.9-1
				c-0.8-0.5-1.8-0.5-2.6,0c-0.4,0.2-0.7,0.6-0.9,1c-0.2,0.5-0.3,1-0.3,1.5c0,0.5,0.1,1,0.3,1.5c0.4,0.8,1.3,1.4,2.2,1.4
				C14.8,91.7,15.3,91.6,15.7,91.4 M12.6,92.1c-0.5-0.3-1-0.8-1.2-1.3c-0.3-0.6-0.5-1.2-0.4-1.9c0-0.7,0.2-1.3,0.4-1.9
				c0.9-1.7,3.1-2.3,4.8-1.3c0,0,0,0,0,0c0.5,0.3,1,0.8,1.2,1.3c0.3,0.6,0.4,1.3,0.4,1.9c0,0.7-0.1,1.3-0.4,1.9
				c-0.3,0.6-0.7,1-1.2,1.3C15.1,92.8,13.7,92.8,12.6,92.1"/>
			<path class="st0" d="M30.2,86c0.5,0.6,0.8,1.5,0.8,2.3v4.2h-0.9v-4.1c0-0.6-0.1-1.2-0.5-1.7c-0.4-0.4-0.9-0.6-1.4-0.6
				c-0.6,0-1.3,0.2-1.7,0.7c-0.4,0.6-0.6,1.2-0.6,1.9v3.8h-0.9v-4.1c0-0.6-0.1-1.2-0.5-1.7C24,86.2,23.5,86,22.9,86
				c-0.6,0-1.2,0.2-1.7,0.7c-0.4,0.5-0.7,1.2-0.6,1.9v3.8h-0.9v-7.3h0.9v1.3c0.2-0.4,0.6-0.8,1-1c0.5-0.2,1-0.4,1.5-0.4
				c0.5,0,1,0.1,1.5,0.4c0.4,0.3,0.8,0.7,0.9,1.2c0.2-0.5,0.6-0.9,1.1-1.1c0.5-0.3,1-0.4,1.6-0.4C29,85.2,29.7,85.4,30.2,86"/>
			<path class="st0" d="M38.2,91.4c0.4-0.2,0.7-0.6,0.9-1c0.5-0.9,0.5-2.1,0-3c-0.2-0.4-0.5-0.8-0.9-1c-0.4-0.2-0.8-0.4-1.3-0.4
				c-0.5,0-0.9,0.1-1.3,0.4c-0.4,0.2-0.7,0.6-0.9,1c-0.5,0.9-0.5,2.1,0,3c0.2,0.4,0.5,0.8,0.9,1C36.4,91.8,37.4,91.8,38.2,91.4
				 M38.7,85.6c0.5,0.3,0.9,0.8,1.2,1.3c0.6,1.2,0.6,2.6,0,3.9c-0.3,0.5-0.7,1-1.2,1.3c-0.5,0.3-1.1,0.5-1.7,0.5
				c-0.5,0-1-0.1-1.5-0.4c-0.5-0.3-0.8-0.6-1.1-1.1v4.1h-0.9v-10h0.9v1.4c0.3-0.5,0.6-0.9,1.1-1.1c0.5-0.3,1-0.4,1.5-0.4
				C37.6,85.2,38.2,85.3,38.7,85.6"/>
			<rect x="42.3" y="82.2" class="st0" width="0.9" height="10.3"/>
			<path class="st0" d="M46.7,86.7c-0.5,0.5-0.7,1.1-0.7,1.8h4.8c0-0.7-0.3-1.3-0.8-1.8C49.2,85.8,47.7,85.8,46.7,86.7 M51.7,89.2
				H46c0,0.7,0.3,1.3,0.8,1.8c0.5,0.5,1.2,0.7,1.9,0.7c0.4,0,0.8-0.1,1.2-0.2c0.4-0.2,0.7-0.4,0.9-0.7l0.5,0.6
				c-0.3,0.4-0.7,0.7-1.1,0.9c-0.5,0.2-1,0.3-1.5,0.3c-0.7,0-1.3-0.2-1.9-0.5c-0.5-0.3-1-0.8-1.3-1.3c-0.3-0.6-0.5-1.2-0.5-1.9
				c0-0.6,0.1-1.3,0.4-1.9c0.3-0.5,0.7-1,1.2-1.3c1-0.6,2.4-0.6,3.4,0c0.5,0.3,0.9,0.8,1.2,1.3c0.3,0.6,0.4,1.3,0.4,1.9V89.2z"/>
			<path class="st0" d="M64.1,86c0.5,0.7,0.8,1.5,0.7,2.3v4.2h-0.9v-4.2c0-0.6-0.1-1.2-0.5-1.7C63,86.2,62.5,86,62,86
				c-0.6,0-1.3,0.2-1.7,0.7c-0.4,0.6-0.6,1.2-0.6,1.9v3.8h-0.9v-4.1c0-0.6-0.1-1.2-0.5-1.7c-0.4-0.4-0.9-0.6-1.5-0.6
				c-0.6,0-1.2,0.2-1.7,0.7c-0.4,0.6-0.7,1.2-0.6,1.9v3.8h-0.9v-7.3h0.9v1.3c0.2-0.4,0.6-0.8,1-1c0.5-0.3,1-0.4,1.5-0.4
				c0.5,0,1,0.1,1.5,0.4c0.4,0.3,0.8,0.7,0.9,1.2c0.2-0.5,0.6-0.9,1.1-1.1c0.5-0.3,1.1-0.4,1.6-0.4C62.9,85.1,63.6,85.4,64.1,86"/>
			<path class="st0" d="M68.3,86.7c-0.5,0.5-0.7,1.1-0.8,1.8h4.8c0-0.7-0.3-1.3-0.8-1.8c-0.4-0.4-1-0.7-1.6-0.7
				C69.4,86,68.8,86.2,68.3,86.7 M73.3,89.2h-5.7c0,0.7,0.3,1.3,0.8,1.8c0.5,0.5,1.2,0.7,1.9,0.7c0.4,0,0.8-0.1,1.2-0.2
				c0.4-0.2,0.7-0.4,0.9-0.7l0.5,0.6c-0.3,0.4-0.7,0.7-1.1,0.9c-0.5,0.2-1,0.3-1.5,0.3c-0.6,0-1.3-0.2-1.8-0.5
				c-0.5-0.3-1-0.8-1.3-1.3c-0.3-0.6-0.5-1.2-0.4-1.9c0-0.6,0.1-1.3,0.4-1.9c0.3-0.5,0.7-1,1.2-1.3c0.5-0.3,1.1-0.5,1.7-0.5
				c0.6,0,1.2,0.2,1.7,0.5c0.5,0.3,0.9,0.8,1.2,1.4c0.3,0.6,0.4,1.3,0.4,1.9L73.3,89.2z"/>
			<path class="st0" d="M80.7,86c0.5,0.7,0.8,1.5,0.8,2.3v4.2h-0.9v-4.2c0.1-0.6-0.1-1.2-0.5-1.7c-0.4-0.4-0.9-0.6-1.5-0.6
				c-0.7,0-1.3,0.2-1.8,0.7c-0.4,0.5-0.7,1.2-0.6,1.9v3.8h-0.9v-7.3H76v1.3c0.2-0.4,0.6-0.8,1-1c0.5-0.2,1-0.4,1.6-0.4
				c0.7,0,1.5,0.3,2,0.8"/>
			<path class="st0" d="M87.5,92.1c-0.2,0.2-0.4,0.3-0.6,0.4c-0.3,0.1-0.5,0.1-0.8,0.1c-0.6,0-1.1-0.2-1.5-0.6
				c-0.4-0.4-0.6-1-0.5-1.6v-4.4h-1.2v-0.8h1.2v-1.6H85v1.6h2.1V86H85v4.4c0,0.4,0.1,0.7,0.3,1c0.2,0.2,0.5,0.4,0.9,0.3
				c0.2,0,0.4,0,0.6-0.1c0.2-0.1,0.3-0.2,0.5-0.3L87.5,92.1z"/>
			<path class="st0" d="M92.4,83.6c-0.2-0.2-0.2-0.6,0-0.8c0.1-0.1,0.2-0.2,0.4-0.2c0.2,0,0.3,0.1,0.4,0.2c0.1,0.1,0.2,0.3,0.2,0.4
				c0,0.2-0.1,0.3-0.2,0.4c-0.1,0.1-0.2,0.2-0.4,0.2C92.6,83.8,92.5,83.7,92.4,83.6 M90.1,83.6c-0.1-0.1-0.2-0.3-0.2-0.4
				c0-0.2,0.1-0.3,0.2-0.4c0.2-0.2,0.5-0.2,0.7-0.1c0,0,0,0,0.1,0.1c0.1,0.1,0.2,0.3,0.2,0.4c0,0.2-0.1,0.3-0.2,0.4
				c-0.1,0.1-0.2,0.2-0.4,0.2C90.3,83.8,90.2,83.7,90.1,83.6 M92.6,91.4c0.4-0.3,0.7-0.7,0.8-1.1v-1.2h-2.1c-1.2,0-1.8,0.4-1.8,1.3
				c0,0.4,0.2,0.8,0.5,1c0.4,0.3,0.8,0.4,1.3,0.4C91.7,91.8,92.2,91.7,92.6,91.4 M93.6,85.9c0.5,0.6,0.8,1.3,0.8,2.1v4.5h-0.9v-1.1
				c-0.2,0.4-0.5,0.7-0.9,0.9c-0.4,0.2-0.9,0.3-1.4,0.3c-0.7,0-1.3-0.2-1.8-0.6c-0.8-0.8-0.9-2.1-0.1-3c0,0,0,0,0,0
				c0.6-0.4,1.3-0.6,2-0.6h2.2V88c0-0.5-0.1-1-0.5-1.4C92.5,86.2,92,86,91.5,86c-0.4,0-0.8,0.1-1.2,0.2c-0.4,0.1-0.7,0.4-1,0.6
				l-0.4-0.7c0.3-0.3,0.7-0.5,1.2-0.7c0.5-0.2,1-0.3,1.5-0.2C92.3,85.1,93,85.4,93.6,85.9"/>
			<path class="st0" d="M98.7,85.5c0.5-0.3,1-0.4,1.6-0.4v1H100c-0.6,0-1.3,0.2-1.7,0.7c-0.4,0.6-0.7,1.3-0.6,2v3.7h-0.9v-7.3h0.9
				v1.4C97.9,86.3,98.3,85.9,98.7,85.5"/>
			<path class="st0" d="M112.6,86c0.5,0.7,0.8,1.5,0.7,2.3v4.2h-0.9v-4.2c0-0.6-0.1-1.2-0.5-1.7c-0.4-0.4-0.9-0.6-1.4-0.6
				c-0.6,0-1.2,0.2-1.7,0.7c-0.4,0.6-0.7,1.2-0.6,1.9v3.8h-0.9v-4.1c0-0.6-0.1-1.2-0.5-1.7c-0.4-0.4-0.9-0.6-1.5-0.6
				c-0.6,0-1.2,0.2-1.7,0.7c-0.4,0.5-0.7,1.2-0.6,1.9v3.8h-1v-7.3h0.9v1.3c0.2-0.4,0.6-0.8,1-1c0.5-0.2,1-0.4,1.5-0.4
				c0.5,0,1,0.1,1.5,0.4c0.4,0.3,0.8,0.7,0.9,1.2c0.2-0.5,0.6-0.9,1.1-1.1c0.5-0.3,1-0.4,1.6-0.4C111.2,85.2,112,85.4,112.6,86"/>
			<path class="st0" d="M116.8,86.7c-0.5,0.5-0.7,1.1-0.8,1.8h4.8c0-0.7-0.3-1.3-0.8-1.8C119.2,85.8,117.7,85.8,116.8,86.7
				 M121.8,89.2H116c0,0.7,0.3,1.3,0.8,1.8c0.5,0.5,1.2,0.7,1.9,0.7c0.4,0,0.8-0.1,1.2-0.2c0.4-0.2,0.7-0.4,0.9-0.7l0.5,0.6
				c-0.3,0.4-0.7,0.7-1.1,0.9c-0.5,0.2-1,0.3-1.5,0.3c-0.7,0-1.3-0.2-1.9-0.5c-0.5-0.3-1-0.8-1.3-1.3c-0.3-0.6-0.5-1.2-0.5-1.9
				c0-0.7,0.1-1.3,0.4-1.9c0.3-0.5,0.7-1,1.2-1.3c0.5-0.3,1.1-0.5,1.7-0.5c0.6,0,1.2,0.2,1.7,0.5c0.5,0.3,0.9,0.8,1.2,1.4
				c0.3,0.6,0.4,1.3,0.4,1.9L121.8,89.2z"/>
			<path class="st0" d="M127.7,91.4c0.4-0.2,0.7-0.6,0.9-1c0.2-0.5,0.3-1,0.3-1.5c0-0.5-0.1-1-0.3-1.5c-0.6-1.2-2.1-1.7-3.3-1.1
				c-0.5,0.2-0.9,0.6-1.1,1.1c-0.2,0.5-0.4,1-0.3,1.5c0,0.5,0.1,1,0.3,1.5c0.2,0.4,0.5,0.8,0.9,1C125.9,91.8,126.9,91.8,127.7,91.4
				 M129.8,82.2v10.3H129v-1.4c-0.3,0.5-0.6,0.9-1.1,1.1c-0.5,0.3-1,0.4-1.5,0.4c-1.3,0-2.4-0.7-3-1.8c-0.6-1.2-0.6-2.6,0-3.9
				c0.3-0.5,0.7-1,1.2-1.3c0.5-0.3,1.1-0.5,1.7-0.5c0.5,0,1,0.1,1.5,0.4c0.5,0.3,0.8,0.6,1.1,1.1v-4.4H129.8z"/>
			<path class="st0" d="M132.4,85.2h0.9v7.3h-0.9V85.2z M132.4,83.4c-0.3-0.3-0.3-0.7,0-1c0.1-0.1,0.3-0.2,0.5-0.2
				c0.2,0,0.4,0.1,0.5,0.2c0.1,0.1,0.2,0.3,0.2,0.5c0,0.2-0.1,0.4-0.2,0.5C133.1,83.7,132.7,83.7,132.4,83.4
				C132.4,83.5,132.4,83.4,132.4,83.4"/>
			<polygon class="st0" points="140.7,91.7 140.7,92.5 135.1,92.5 135.1,91.9 139.4,86.1 135.2,86.1 135.2,85.2 140.6,85.2 
				140.6,85.9 136.3,91.7 			"/>
			<path class="st0" d="M142.5,85.2h0.9v7.3h-0.9V85.2z M142.5,83.4c-0.3-0.3-0.3-0.7,0-1c0.1-0.1,0.3-0.2,0.5-0.2
				c0.2,0,0.4,0.1,0.5,0.2c0.1,0.1,0.2,0.3,0.2,0.5c0,0.2-0.1,0.4-0.2,0.5C143.2,83.7,142.8,83.7,142.5,83.4
				C142.5,83.5,142.5,83.4,142.5,83.4"/>
			<path class="st0" d="M151.5,86c0.5,0.7,0.8,1.5,0.8,2.3v4.2h-0.9v-4.2c0-0.6-0.1-1.2-0.5-1.7c-0.4-0.4-0.9-0.6-1.5-0.6
				c-0.7,0-1.3,0.2-1.8,0.7c-0.4,0.5-0.7,1.2-0.6,1.9v3.8H146v-7.3h0.9v1.3c0.2-0.4,0.6-0.8,1-1c0.5-0.2,1-0.4,1.6-0.4
				C150.2,85.2,150.9,85.5,151.5,86"/>
		</g>
	</g>
</g>
</svg>
